<?xml version="1.0" encoding="utf-8"?>
<!-- Generator: Adobe Illustrator 19.2.0, SVG Export Plug-In . SVG Version: 6.00 Build 0)  -->
<svg version="1.1" id="Layer_1" xmlns="http://www.w3.org/2000/svg" xmlns:xlink="http://www.w3.org/1999/xlink" x="0px" y="0px"
	 viewBox="0 0 90 60" style="enable-background:new 0 0 90 60;" xml:space="preserve">
<style type="text/css">
	.st0{fill:#FEB321;}
</style>
<g id="XMLID_1857_">
	<g id="XMLID_901_">
		<path id="XMLID_2503_" class="st0" d="M59,40.3h-3.7c-0.6,0-1-0.5-1-1v-7.2h-2.4v7.2c0,0.6-0.5,1-1,1h-3.7c-0.6,0-1-0.5-1-1v-7.2
			h-2.4v7.2c0,0.6-0.5,1-1,1h-3.7c-0.6,0-1-0.5-1-1v-7.2H31c-0.6,0-1-0.5-1-1V19.3c0-0.6,0.5-1,1-1h3.7c0.6,0,1,0.5,1,1v7.1h2.4
			v-7.1c0-0.6,0.5-1,1-1h3.7c0.6,0,1,0.5,1,1v7.1h2.4v-7.1c0-0.6,0.5-1,1-1h3.7c0.6,0,1,0.5,1,1v7.1h2.4v-7.1c0-0.6,0.5-1,1-1H59
			c0.6,0,1,0.5,1,1v20C60,39.8,59.6,40.3,59,40.3z M56.4,38.3H58v-18h-1.6v7.1c0,0.6-0.5,1-1,1h-4.5c-0.6,0-1-0.5-1-1v-7.1h-1.6v7.1
			c0,0.6-0.5,1-1,1h-4.5c-0.6,0-1-0.5-1-1v-7.1h-1.6v7.1c0,0.6-0.5,1-1,1h-4.5c-0.6,0-1-0.5-1-1v-7.1H32v9.8h7.1c0.6,0,1,0.5,1,1
			v7.2h1.6v-7.2c0-0.6,0.5-1,1-1h4.5c0.6,0,1,0.5,1,1v7.2h1.6v-7.2c0-0.6,0.5-1,1-1h4.5c0.6,0,1,0.5,1,1V38.3z"/>
	</g>
	<g id="XMLID_1765_">
		<path id="XMLID_2502_" class="st0" d="M45,55.3c-6.9,0-13.5-2.7-18.4-7.6c-4.4-4.4-7.1-10.2-7.5-16.4c-0.5-6.1,1.2-12.2,4.8-17.2
			c0.3-0.5,1-0.6,1.4-0.2c0.5,0.3,0.6,1,0.2,1.4c-6.9,9.6-5.8,22.6,2.5,30.9c4.5,4.5,10.5,7,16.9,7s12.4-2.5,16.9-7
			c4.5-4.5,7-10.5,7-16.9s-2.5-12.4-7-16.9C53.6,4,40.6,2.9,31,9.8c-0.5,0.3-1.1,0.2-1.4-0.2c-0.3-0.5-0.2-1.1,0.2-1.4
			c4.9-3.6,11-5.3,17.1-4.8c6.2,0.5,12,3.2,16.4,7.5c4.9,4.9,7.6,11.4,7.6,18.4s-2.7,13.5-7.6,18.4C58.5,52.6,51.9,55.3,45,55.3z"/>
	</g>
	<g id="XMLID_1396_">
		<path id="XMLID_2501_" class="st0" d="M27.3,12.6c-0.3,0-0.5-0.1-0.7-0.3c-0.4-0.4-0.4-1,0-1.4l0,0c0.4-0.4,1-0.4,1.4,0
			c0.4,0.4,0.4,1,0,1.4l0,0C27.9,12.5,27.6,12.6,27.3,12.6z"/>
	</g>
</g>
</svg>
