<?xml version="1.0" encoding="utf-8"?>
<!-- Generator: Adobe Illustrator 19.2.0, SVG Export Plug-In . SVG Version: 6.00 Build 0)  -->
<svg version="1.1" id="Layer_1" xmlns="http://www.w3.org/2000/svg" xmlns:xlink="http://www.w3.org/1999/xlink" x="0px" y="0px"
	 viewBox="0 0 90 60" style="enable-background:new 0 0 90 60;" xml:space="preserve">
<style type="text/css">
	.st0{font-family:'Nexa-Heavy';}
	.st1{font-size:9.5885px;}
</style>
<g>
	<g>
		<path d="M38.2,5h-0.3c-3.1,0-5.7,2.6-5.7,5.7V30h2.4V10.7c0-1.8,1.5-3.3,3.3-3.3h0.3c1.8,0,3.3,1.5,3.3,3.3V30h2.4V10.7
			C43.9,7.6,41.4,5,38.2,5z M41.6,33.9v15.4c0,1.8-1.5,3.3-3.3,3.3h-0.3c-1.8,0-3.3-1.5-3.3-3.3V33.9h-2.4v15.4
			c0,3.1,2.6,5.7,5.7,5.7h0.3c3.1,0,5.7-2.6,5.7-5.7V33.9H41.6z"/>
	</g>
	<path d="M49.8,28.2H26.3c-2.7,0-4.9,2.2-4.9,4.9v5.7c0,2.7,2.2,4.9,4.9,4.9h23.5c2.7,0,4.9-2.2,4.9-4.9v-5.7
		C54.7,30.4,52.5,28.2,49.8,28.2z M51.1,33.1c0,0.4-0.3,0.8-0.8,0.8H25.8c-0.4,0-0.8-0.3-0.8-0.8v-2.4c0-0.4,0.3-0.8,0.8-0.8h24.5
		c0.4,0,0.8,0.3,0.8,0.8V33.1z"/>
	<path d="M58.7,10.8H47.9c-0.3,0-0.6-0.3-0.6-0.6v0c0-0.3,0.3-0.6,0.6-0.6h10.9c0.3,0,0.6,0.3,0.6,0.6v0
		C59.3,10.5,59,10.8,58.7,10.8z"/>
	<path d="M58.7,23.4H47.9c-0.3,0-0.6-0.3-0.6-0.6l0,0c0-0.3,0.3-0.6,0.6-0.6h10.9c0.3,0,0.6,0.3,0.6,0.6l0,0
		C59.3,23.2,59,23.4,58.7,23.4z"/>
	<path d="M58.7,36.1H47.9c-0.3,0-0.6-0.3-0.6-0.6l0,0c0-0.3,0.3-0.6,0.6-0.6h10.9c0.3,0,0.6,0.3,0.6,0.6l0,0
		C59.3,35.8,59,36.1,58.7,36.1z"/>
	<path d="M58.7,48.7H47.9c-0.3,0-0.6-0.3-0.6-0.6l0,0c0-0.3,0.3-0.6,0.6-0.6h10.9c0.3,0,0.6,0.3,0.6,0.6l0,0
		C59.3,48.5,59,48.7,58.7,48.7z"/>
	<text transform="matrix(1 0 0 1 61.0883 51.5393)" class="st0 st1">N</text>
	<text transform="matrix(1 0 0 1 61.0883 38.7551)" class="st0 st1">D</text>
	<text transform="matrix(1 0 0 1 61.0883 25.9699)" class="st0 st1">R</text>
	<text transform="matrix(1 0 0 1 61.0883 13.1858)" class="st0 st1">P</text>
</g>
</svg>
