<?xml version="1.0" encoding="utf-8"?>
<!-- Generator: Adobe Illustrator 19.2.0, SVG Export Plug-In . SVG Version: 6.00 Build 0)  -->
<svg version="1.1" id="Layer_1" xmlns="http://www.w3.org/2000/svg" xmlns:xlink="http://www.w3.org/1999/xlink" x="0px" y="0px"
	 viewBox="0 0 90 60" style="enable-background:new 0 0 90 60;" xml:space="preserve">
<style type="text/css">
	.st0{fill:#FEB321;}
</style>
<g>
	<path class="st0" d="M68.5,54.3c-1.3,1.3-2.4,2.4-3.9,4l-9-8.7c-1-1.1-2.1-1.5-3.6-1.4c-4.1,0.1-8.3,0-12.4,0
		c-5.5,0-9.2-3.7-9.2-9.1c0-5.7,0-11.3,0-17c0-3.9,2.4-6.2,6.3-6.2c4.3,0,6.8,2.1,6.9,6.1c0.1,5.2,0,10.4,0,15.5v1.9
		c3,0,5.9-0.1,8.7,0c0.8,0,1.8,0.4,2.4,1c4.4,4.2,8.6,8.5,12.9,12.8C67.9,53.6,68.1,53.9,68.5,54.3z"/>
	<path class="st0" d="M21.6,15.9c1.9,0,3.7,0,5.7,0c0,0.6,0,1.1,0,1.7c0,8,0.1,16,0,24c-0.1,5.6,4.3,9.8,9.5,9.6
		c5.6-0.2,11.2,0,16.9,0c0,2,0,3.9,0,5.9c-1.6,0-3.1,0-4.6,0C44,57,38.9,57.2,33.9,56.7c-6.2-0.5-11.9-6-12.2-12.3
		C21.3,35,21.6,25.6,21.6,15.9z"/>
	<path class="st0" d="M36.1,12.8c-3.3,0-5.8-2.6-5.7-5.9c0-3.3,2.6-5.8,5.9-5.8c3.3,0,5.8,2.7,5.8,5.9C42,10.3,39.4,12.9,36.1,12.8z
		"/>
</g>
</svg>
