<?xml version="1.0" encoding="utf-8"?>
<!-- Generator: Adobe Illustrator 19.2.0, SVG Export Plug-In . SVG Version: 6.00 Build 0)  -->
<svg version="1.1" id="Layer_1" xmlns="http://www.w3.org/2000/svg" xmlns:xlink="http://www.w3.org/1999/xlink" x="0px" y="0px"
	 viewBox="0 0 90 60" style="enable-background:new 0 0 90 60;" xml:space="preserve">
<style type="text/css">
	.st0{fill:#FEB321;}
</style>
<g>
	<g>
		<path class="st0" d="M17.1,5.1C17.1,5.1,17.1,5.1,17.1,5.1L17.1,5.1z"/>
		<path class="st0" d="M69.7,42.7c-1.9-1.6-4.2-2.4-6.6-2L37.8,44l-1-9.7c-0.5-5.4-1.7-10.6-3.7-15.6l-0.9-2.2
			c-0.7-1.8-2-3.1-3.7-3.9c0.7-1.6,0.8-3.4,0.3-5.2c0,0,0,0,0,0c-1.4-3.5-4.8-5.9-8.6-5.9c-0.9,0-1.8,0.4-2.4,1.1
			c-0.6,0.7-0.8,1.7-0.6,2.6l8.4,36.7c0.1,0.5,0.6,0.7,1,0.6c0.5-0.1,0.7-0.6,0.6-1l-5.8-25.9c-0.1-0.5,0-1,0.3-1.4
			c0.3-0.4,0.8-0.6,1.4-0.6l2.4,0c0.5,0,1,0.1,1.4,0.2c0,0,0,0,0.1,0c1.6,0.5,2.9,1.7,3.5,3.3l0.9,2.2c1.9,4.8,3.1,9.9,3.6,15.1
			c0,0,0,0,0,0l1,9.8l-1.6,0.2c-1.1-1.5-3-2.2-4.8-1.8c-2.5,0.6-4.2,3.1-3.6,5.6c0,0,0,0,0,0l2.1,8.6c0.2,1,1.2,1.8,2.2,1.8h32.3
			c2.4,0,4.3-1.9,4.4-4.3h2c2.2,0,3.9-1.9,3.9-4.2C72.9,47.2,71.8,44.5,69.7,42.7z M26.9,12c-0.4-0.1-0.8-0.1-1.3-0.1l-2.4,0
			c-0.9,0-1.8,0.3-2.4,1l-2-8.1c-0.1-0.4,0-0.8,0.3-1.1c0.3-0.3,0.7-0.5,1.1-0.5c3.1,0.1,5.9,2,7,4.9C27.6,9.3,27.5,10.8,26.9,12z
			 M30.4,56.9L30.4,56.9c-0.3,0-0.5-0.2-0.6-0.5l-2.1-8.6c-0.4-1.6,0.7-3.3,2.3-3.6c1.6-0.4,3.3,0.7,3.6,2.3l2.4,10.3L30.4,56.9
			L30.4,56.9z M69,52.6h-9.5c-0.5,0-0.8,0.4-0.8,0.8c0,0.5,0.4,0.8,0.8,0.8h5.8c0,1.5-1.2,2.6-2.7,2.6H37.8l-0.6-2.6h18.4
			c0.5,0,0.8-0.4,0.8-0.8c0-0.5-0.4-0.8-0.8-0.8H36.8l-1.5-6.4c0-0.1,0-0.1,0-0.2l28.1-3.7c1.9-0.2,3.7,0.3,5.2,1.6
			c1.7,1.5,2.7,3.7,2.7,6.1C71.3,51.5,70.3,52.6,69,52.6z"/>
	</g>
</g>
</svg>
