<?xml version="1.0" encoding="utf-8"?>
<!-- Generator: Adobe Illustrator 19.2.0, SVG Export Plug-In . SVG Version: 6.00 Build 0)  -->
<svg version="1.1" id="Layer_1" xmlns="http://www.w3.org/2000/svg" xmlns:xlink="http://www.w3.org/1999/xlink" x="0px" y="0px"
	 viewBox="0 0 90 60" style="enable-background:new 0 0 90 60;" xml:space="preserve">
<g>
	<g>
		<path d="M21.8,0.9c1,0.5,1.3,1.3,1.3,2.4c0,13.4,0,26.9,0,40.3c0,0.3,0,0.6,0,1c0.4,0,0.7,0,1,0c18.3,0,36.6,0,54.8,0
			c1.1,0,1.9,0.3,2.4,1.4c0,1.5,0,3,0,4.6c-0.4,1.1-1.2,1.4-2.4,1.4c-1.8,0-3.6,0-5.4,0c-1.1,0-2.3,0-3.4,0c0.1,0.2,0.1,0.4,0.1,0.6
			c0.6,2.6-0.8,5.2-3.2,6.3c-0.4,0.2-0.8,0.3-1.2,0.4c-0.6,0-1.1,0-1.7,0c-0.1,0-0.2-0.1-0.3-0.1c-2.5-0.6-4.1-2.5-4.3-5
			c0-0.7,0.1-1.4,0.2-2.1c-7.4,0-14.8,0-22.3,0c0,0.2,0.1,0.4,0.1,0.6c0.6,2.6-0.8,5.2-3.2,6.2c-0.4,0.2-0.8,0.3-1.3,0.4
			c-0.6,0-1.1,0-1.7,0c-0.2-0.1-0.4-0.1-0.6-0.2c-2.3-0.7-3.6-2.3-3.9-4.7c-0.1-0.8,0.1-1.6,0.1-2.4c-0.2,0-0.5,0-0.7,0
			c-2.6,0-5.2,0-7.7,0c-2.1,0-2.6-0.5-2.6-2.6c0-13.4,0-26.8,0-40.2c0-0.3,0-0.6,0-0.9c-1.7,0-3.3-0.1-4.9,0c-1.1,0-1.9-0.3-2.4-1.3
			c0-1.6,0-3.1,0-4.7C9,1.7,9.5,1.3,9.9,0.9C13.9,0.9,17.8,0.9,21.8,0.9z"/>
		<path d="M58.7,0.9C58.7,0.9,58.7,0.9,58.7,0.9c3.4,1.2,4.6,2.8,4.6,6.4c0,9.7,0,19.4,0,29.1c0,0.3,0,0.6,0,0.9
			c-7.3,0-14.5,0-21.9,0c0-0.3,0-0.6,0-0.8c0-9.9,0-19.7,0-29.6c0-3.2,1.4-5.1,4.5-5.9c0,0,0.1-0.1,0.1-0.1
			C50.2,0.9,54.4,0.9,58.7,0.9z M57.7,6.4c-3.6,0-7.2,0-10.8,0c0,1.8,0,3.6,0,5.4c3.6,0,7.2,0,10.8,0C57.7,9.9,57.7,8.2,57.7,6.4z"
			/>
		<path d="M37.7,11.8c0,8.5,0,17,0,25.4c-1.5,0-3.1,0.2-4.6,0c-1.6-0.2-2.6-1.7-2.6-3.3c0-1.4,0-2.9,0-4.3c0-4.6,0-9.1,0-13.7
			c0-2.6,1.5-4,4-4C35.5,11.8,36.6,11.8,37.7,11.8z"/>
		<path d="M66.9,11.8c1.4,0,2.7-0.1,4,0c1.9,0.1,3.2,1.8,3.2,3.8c0,4.8,0,9.7,0,14.5c0,1.1,0,2.3,0,3.4c0,2.2-1.5,3.7-3.7,3.7
			c-1.2,0-2.3,0-3.5,0C66.9,28.8,66.9,20.3,66.9,11.8z"/>
	</g>
</g>
</svg>
