<?xml version="1.0" encoding="utf-8"?>
<!-- Generator: Adobe Illustrator 19.2.0, SVG Export Plug-In . SVG Version: 6.00 Build 0)  -->
<svg version="1.1" id="Layer_1" xmlns="http://www.w3.org/2000/svg" xmlns:xlink="http://www.w3.org/1999/xlink" x="0px" y="0px"
	 viewBox="0 0 90 60" style="enable-background:new 0 0 90 60;" xml:space="preserve">
<style type="text/css">
	.st0{stroke:#000000;stroke-width:2;stroke-miterlimit:10;}
</style>
<path class="st0" d="M67.1,40.7l-5.3-3.1l4.6-2.7c0.9-0.5,1.1-1.6,0.6-2.5c-0.5-0.9-1.6-1.1-2.5-0.6l-6.4,3.8l-3.8-2.2v-6.8l3.7-2.2
	l6.4,3.8c0.3,0.2,0.6,0.2,0.9,0.2c0.6,0,1.2-0.3,1.5-0.9c0.5-0.9,0.2-2-0.6-2.5l-4.6-2.7l5.3-3.1c0.9-0.5,1.2-1.6,0.7-2.5
	c-0.5-0.9-1.6-1.2-2.5-0.7L60,19.3l0-5.4c0-1-0.8-1.8-1.8-1.8c-1,0-1.8,0.8-1.8,1.8l0.1,7.4l-3.7,2.2l-5.9-3.4v-4.3l6.4-3.6
	c0.9-0.5,1.2-1.6,0.7-2.4c-0.5-0.9-1.6-1.2-2.4-0.7l-4.7,2.6V5.5c0-1-0.8-1.8-1.8-1.8c-1,0-1.8,0.8-1.8,1.8v6.2L38.5,9
	c-0.9-0.5-2-0.2-2.4,0.7c-0.5,0.9-0.2,2,0.7,2.4l6.4,3.6v4.3l-5.9,3.4l-3.8-2.2l0.1-7.4c0-1-0.8-1.8-1.8-1.8c0,0,0,0,0,0
	c-1,0-1.8,0.8-1.8,1.8l0,5.4l-5.3-3.1c-0.9-0.5-2-0.2-2.5,0.7c-0.5,0.9-0.2,2,0.7,2.5l5.3,3.1l-4.6,2.7c-0.9,0.5-1.1,1.6-0.6,2.5
	c0.3,0.6,0.9,0.9,1.5,0.9c0.3,0,0.6-0.1,0.9-0.2l6.4-3.8l3.7,2.2v6.8l-3.8,2.2l-6.4-3.8c-0.9-0.5-2-0.2-2.5,0.6
	c-0.5,0.9-0.2,2,0.6,2.5l4.6,2.7l-5.3,3.1c-0.9,0.5-1.2,1.6-0.7,2.5c0.3,0.6,0.9,0.9,1.6,0.9c0.3,0,0.6-0.1,0.9-0.2l5.3-3.1l0,5.4
	c0,1,0.8,1.8,1.8,1.8c0,0,0,0,0,0c1,0,1.8-0.8,1.8-1.8l-0.1-7.4l3.8-2.2l5.9,3.4v4.3l-6.4,3.6c-0.9,0.5-1.2,1.6-0.7,2.4
	c0.3,0.6,0.9,0.9,1.6,0.9c0.3,0,0.6-0.1,0.9-0.2l4.7-2.6v6.2c0,1,0.8,1.8,1.8,1.8c1,0,1.8-0.8,1.8-1.8v-6.2l4.7,2.6
	c0.3,0.2,0.6,0.2,0.9,0.2c0.6,0,1.2-0.3,1.6-0.9c0.5-0.9,0.2-2-0.7-2.4l-6.4-3.6v-4.3l5.9-3.4l3.7,2.2l-0.1,7.4c0,1,0.8,1.8,1.8,1.8
	c0,0,0,0,0,0c1,0,1.8-0.8,1.8-1.8l0-5.4l5.3,3.1c0.3,0.2,0.6,0.2,0.9,0.2c0.6,0,1.2-0.3,1.6-0.9C68.3,42.3,68,41.2,67.1,40.7z
	 M39.1,26.6l5.9-3.4l5.9,3.4v6.8L45,36.8l-5.9-3.4V26.6z"/>
<path d="M701.9,597.6l-48.8-28.1l42.2-24.9c7.8-4.6,10.4-14.6,5.8-22.4c-4.6-7.8-14.6-10.4-22.4-5.8l-58.2,34.3l-34.3-19.8v-61.8
	l34.2-19.8l58.2,34.3c2.6,1.5,5.5,2.3,8.3,2.3c5.6,0,11.1-2.9,14.1-8.1c4.6-7.8,2-17.8-5.8-22.4l-42.3-24.9l48.8-28.2
	c7.8-4.5,10.5-14.5,6-22.4c-4.5-7.8-14.5-10.5-22.4-6l-48.8,28.1l-0.4-49.1c-0.1-9-7.5-16.4-16.5-16.2c-9,0.1-16.3,7.5-16.2,16.5
	l0.6,67.6l-34.2,19.8l-53.5-30.9v-39.5l58.8-33.2c7.9-4.5,10.7-14.4,6.2-22.3c-4.5-7.9-14.4-10.7-22.3-6.2l-42.7,24.1v-56.3
	c0-9-7.3-16.4-16.4-16.4c-9,0-16.4,7.3-16.4,16.4v56.3l-42.7-24.1c-7.9-4.5-17.9-1.7-22.3,6.2c-4.5,7.9-1.7,17.9,6.2,22.3l58.8,33.2
	v39.5l-53.5,30.9L395.9,421l0.6-67.6c0.1-9-7.2-16.4-16.2-16.5c-0.1,0-0.1,0-0.1,0c-9,0-16.3,7.2-16.4,16.2l-0.4,49.1L314.5,374
	c-7.8-4.5-17.9-1.8-22.4,6c-4.5,7.8-1.8,17.9,6,22.4l48.8,28.2l-42.3,24.9c-7.8,4.6-10.4,14.6-5.8,22.4c3.1,5.2,8.5,8.1,14.1,8.1
	c2.8,0,5.7-0.7,8.3-2.3l58.2-34.3l34.2,19.8v61.8l-34.3,19.8l-58.2-34.3c-7.8-4.6-17.8-2-22.4,5.8c-4.6,7.8-2,17.8,5.8,22.4
	l42.3,24.9l-48.7,28.1c-7.8,4.5-10.5,14.5-6,22.4c3,5.3,8.5,8.2,14.2,8.2c2.8,0,5.6-0.7,8.2-2.2l48.7-28.1l0.4,49.1
	c0.1,9,7.4,16.2,16.4,16.2c0,0,0.1,0,0.1,0c9-0.1,16.3-7.5,16.2-16.5l-0.6-67.6l34.2-19.8l53.5,30.9v39.5l-58.8,33.2
	c-7.9,4.5-10.7,14.4-6.2,22.3c3,5.3,8.6,8.3,14.3,8.3c2.7,0,5.5-0.7,8-2.1l42.7-24.1v56.3c0,9,7.3,16.4,16.4,16.4
	c9,0,16.4-7.3,16.4-16.4v-56.3l42.7,24.1c2.5,1.4,5.3,2.1,8,2.1c5.7,0,11.3-3,14.3-8.3c4.5-7.9,1.7-17.9-6.2-22.3l-58.8-33.2v-39.5
	l53.5-30.9l34.2,19.8l-0.6,67.6c-0.1,9,7.2,16.4,16.2,16.5c0.1,0,0.1,0,0.2,0c9,0,16.3-7.2,16.4-16.2l0.5-49.1l48.8,28.2
	c2.6,1.5,5.4,2.2,8.2,2.2c5.7,0,11.2-2.9,14.2-8.2C712.4,612.2,709.7,602.1,701.9,597.6z M446.5,469.1l53.5-30.9l53.5,30.9v61.8
	L500,561.8l-53.5-30.9V469.1z"/>
</svg>
