<?xml version="1.0" encoding="utf-8"?>
<!-- Generator: Adobe Illustrator 19.2.0, SVG Export Plug-In . SVG Version: 6.00 Build 0)  -->
<svg version="1.1" id="Layer_1" xmlns="http://www.w3.org/2000/svg" xmlns:xlink="http://www.w3.org/1999/xlink" x="0px" y="0px"
	 viewBox="0 0 90 60" style="enable-background:new 0 0 90 60;" xml:space="preserve">
<style type="text/css">
	.st0{fill:#FEB321;}
</style>
<g>
	<path class="st0" d="M67.8,41l-5.5-3.2l4.8-2.8c0.9-0.5,1.2-1.7,0.7-2.5c-0.5-0.9-1.7-1.2-2.5-0.7l-6.6,3.9l-3.9-2.2v-7l3.9-2.2
		l6.6,3.9c0.3,0.2,0.6,0.3,0.9,0.3c0.6,0,1.3-0.3,1.6-0.9c0.5-0.9,0.2-2-0.7-2.5l-4.8-2.8l5.5-3.2c0.9-0.5,1.2-1.6,0.7-2.5
		c-0.5-0.9-1.6-1.2-2.5-0.7l-5.5,3.2l0-5.5c0-1-0.8-1.9-1.9-1.8c-1,0-1.8,0.8-1.8,1.9l0.1,7.6l-3.9,2.2l-6-3.5v-4.5l6.7-3.8
		c0.9-0.5,1.2-1.6,0.7-2.5c-0.5-0.9-1.6-1.2-2.5-0.7l-4.8,2.7V4.7c0-1-0.8-1.9-1.9-1.9c-1,0-1.9,0.8-1.9,1.9v6.4l-4.8-2.7
		c-0.9-0.5-2-0.2-2.5,0.7c-0.5,0.9-0.2,2,0.7,2.5l6.7,3.8v4.5l-6,3.5l-3.9-2.2l0.1-7.6c0-1-0.8-1.9-1.8-1.9c0,0,0,0,0,0
		c-1,0-1.8,0.8-1.9,1.8l0,5.5L24,15.8c-0.9-0.5-2-0.2-2.5,0.7c-0.5,0.9-0.2,2,0.7,2.5l5.5,3.2L22.9,25c-0.9,0.5-1.2,1.7-0.7,2.5
		c0.3,0.6,1,0.9,1.6,0.9c0.3,0,0.6-0.1,0.9-0.3l6.6-3.9l3.9,2.2v7l-3.9,2.2l-6.6-3.9c-0.9-0.5-2-0.2-2.5,0.7c-0.5,0.9-0.2,2,0.7,2.5
		l4.8,2.8L22.2,41c-0.9,0.5-1.2,1.6-0.7,2.5c0.3,0.6,1,0.9,1.6,0.9c0.3,0,0.6-0.1,0.9-0.2l5.5-3.2l0,5.5c0,1,0.8,1.8,1.9,1.8
		c0,0,0,0,0,0c1,0,1.8-0.8,1.8-1.9l-0.1-7.6l3.9-2.2l6,3.5v4.5l-6.7,3.8c-0.9,0.5-1.2,1.6-0.7,2.5c0.3,0.6,1,0.9,1.6,0.9
		c0.3,0,0.6-0.1,0.9-0.2l4.8-2.7v6.4c0,1,0.8,1.9,1.9,1.9c1,0,1.9-0.8,1.9-1.9v-6.4l4.8,2.7c0.3,0.2,0.6,0.2,0.9,0.2
		c0.6,0,1.3-0.3,1.6-0.9c0.5-0.9,0.2-2-0.7-2.5l-6.7-3.8v-4.5l6-3.5l3.9,2.2l-0.1,7.6c0,1,0.8,1.9,1.8,1.9c0,0,0,0,0,0
		c1,0,1.8-0.8,1.9-1.8l0.1-5.5l5.5,3.2c0.3,0.2,0.6,0.2,0.9,0.2c0.6,0,1.3-0.3,1.6-0.9C69,42.7,68.7,41.5,67.8,41z M39,26.5l6-3.5
		l6,3.5v7L45,37l-6-3.5V26.5z"/>
</g>
</svg>
